<svg width="489" height="624" viewBox="0 0 489 624" fill="none" xmlns="http://www.w3.org/2000/svg">
<path fill-rule="evenodd" clip-rule="evenodd" d="M209.821 33.0209C214.344 21.1124 216.606 15.1582 220.494 10.7719C223.93 6.89687 228.254 3.91346 233.096 2.07782C238.577 0 244.947 0 257.685 0H437.163C455.084 0 464.045 0 470.891 3.48779C476.912 6.55574 481.807 11.4511 484.875 17.4723C488.363 24.3175 488.363 33.2783 488.363 51.2V572.8C488.363 590.722 488.363 599.682 484.875 606.528C481.807 612.549 476.912 617.444 470.891 620.512C464.045 624 455.084 624 437.163 624H59.5775C34.6561 624 22.1955 624 14.2067 618.764C7.21847 614.185 2.29864 607.053 0.498507 598.894C-1.55938 589.567 2.86492 577.918 11.7135 554.621L209.821 33.0209Z" fill="#FFC7DF"/>
</svg>
